<svg xmlns="http://www.w3.org/2000/svg" viewBox="0 0 1600 800" width="1600" height="800" style="background:#fff; font-family:sans-serif;">
<defs>
    <marker id="arrow" markerWidth="10" markerHeight="10" refX="9" refY="3" orient="auto" markerUnits="strokeWidth">
      <path d="M0,0 L0,6 L9,3 z" fill="#334155" />
    </marker>
  </defs><rect x="50" y="50" width="260" height="210" fill="#fff" stroke="#1e293b" stroke-width="2" stroke-dasharray=""/>
<rect x="50" y="50" width="260" height="30" fill="#dbeafe" stroke="#1e293b" stroke-width="2" stroke-dasharray=""/>
<text x="180.0" y="70" font-size="14" fill="#0f172a" text-anchor="middle" font-weight="bold" >ServerRoutes (JS Express)</text>
<text x="60" y="95" font-size="12" fill="#0f172a" text-anchor="start"  >- DATA_DIR: path</text>
<text x="60" y="115" font-size="12" fill="#0f172a" text-anchor="start"  >- PROCESSED_DIR: path</text>
<text x="60" y="135" font-size="12" fill="#0f172a" text-anchor="start"  >- SVG_DIR: path</text>
<line x1="50" y1="145" x2="310" y2="145" stroke="#1e293b" stroke-width="2" stroke-dasharray=""/>
<text x="60" y="165" font-size="12" fill="#0f172a" text-anchor="start"  >+ POST /api/orders</text>
<text x="60" y="185" font-size="12" fill="#0f172a" text-anchor="start"  >+ GET /api/orders</text>
<text x="60" y="205" font-size="12" fill="#0f172a" text-anchor="start"  >+ POST /api/arrive</text>
<text x="60" y="225" font-size="12" fill="#0f172a" text-anchor="start"  >+ GET /api/forecast</text>
<text x="60" y="245" font-size="12" fill="#0f172a" text-anchor="start"  >+ POST /api/reset-warehouse</text>
<rect x="350" y="50" width="260" height="170" fill="#fff" stroke="#1e293b" stroke-width="2" stroke-dasharray=""/>
<rect x="350" y="50" width="260" height="30" fill="#dbeafe" stroke="#1e293b" stroke-width="2" stroke-dasharray=""/>
<text x="480.0" y="70" font-size="14" fill="#0f172a" text-anchor="middle" font-weight="bold" >ItemMeta (JSON)</text>
<text x="360" y="95" font-size="12" fill="#0f172a" text-anchor="start"  >- item_id: str</text>
<text x="360" y="115" font-size="12" fill="#0f172a" text-anchor="start"  >- category: str</text>
<text x="360" y="135" font-size="12" fill="#0f172a" text-anchor="start"  >- current_stock: int</text>
<text x="360" y="155" font-size="12" fill="#0f172a" text-anchor="start"  >- dept: str</text>
<text x="360" y="175" font-size="12" fill="#0f172a" text-anchor="start"  >- reorder_point: int</text>
<text x="360" y="195" font-size="12" fill="#0f172a" text-anchor="start"  >- size: str</text>
<text x="360" y="215" font-size="12" fill="#0f172a" text-anchor="start"  >- unit_weight_kg: float</text>
<line x1="350" y1="225" x2="610" y2="225" stroke="#1e293b" stroke-width="2" stroke-dasharray=""/>
<rect x="650" y="50" width="260" height="90" fill="#fff" stroke="#1e293b" stroke-width="2" stroke-dasharray=""/>
<rect x="650" y="50" width="260" height="30" fill="#dbeafe" stroke="#1e293b" stroke-width="2" stroke-dasharray=""/>
<text x="780.0" y="70" font-size="14" fill="#0f172a" text-anchor="middle" font-weight="bold" >SlotRegistry (JSON)</text>
<text x="660" y="95" font-size="12" fill="#0f172a" text-anchor="start"  >- last_updated: iso_date</text>
<text x="660" y="115" font-size="12" fill="#0f172a" text-anchor="start"  >- total_batches: int</text>
<text x="660" y="135" font-size="12" fill="#0f172a" text-anchor="start"  >- slots: Dict[slot_id, Slot]</text>
<line x1="650" y1="145" x2="910" y2="145" stroke="#1e293b" stroke-width="2" stroke-dasharray=""/>
<rect x="950" y="50" width="260" height="110" fill="#fff" stroke="#1e293b" stroke-width="2" stroke-dasharray=""/>
<rect x="950" y="50" width="260" height="30" fill="#dbeafe" stroke="#1e293b" stroke-width="2" stroke-dasharray=""/>
<text x="1080.0" y="70" font-size="14" fill="#0f172a" text-anchor="middle" font-weight="bold" >DemandForecast (CSV)</text>
<text x="960" y="95" font-size="12" fill="#0f172a" text-anchor="start"  >- item_id: str</text>
<text x="960" y="115" font-size="12" fill="#0f172a" text-anchor="start"  >- lgbm_pred: float</text>
<text x="960" y="135" font-size="12" fill="#0f172a" text-anchor="start"  >- xgb_pred: float</text>
<text x="960" y="155" font-size="12" fill="#0f172a" text-anchor="start"  >- route: str</text>
<line x1="950" y1="165" x2="1210" y2="165" stroke="#1e293b" stroke-width="2" stroke-dasharray=""/>
<rect x="350" y="450" width="260" height="50" fill="#fff" stroke="#1e293b" stroke-width="2" stroke-dasharray=""/>
<rect x="350" y="450" width="260" height="30" fill="#dbeafe" stroke="#1e293b" stroke-width="2" stroke-dasharray=""/>
<text x="480.0" y="470" font-size="14" fill="#0f172a" text-anchor="middle" font-weight="bold" >OrderRegistry (JSON)</text>
<text x="360" y="495" font-size="12" fill="#0f172a" text-anchor="start"  >- orders: List[Order]</text>
<line x1="350" y1="505" x2="610" y2="505" stroke="#1e293b" stroke-width="2" stroke-dasharray=""/>
<rect x="650" y="450" width="260" height="110" fill="#fff" stroke="#1e293b" stroke-width="2" stroke-dasharray=""/>
<rect x="650" y="450" width="260" height="30" fill="#dbeafe" stroke="#1e293b" stroke-width="2" stroke-dasharray=""/>
<text x="780.0" y="470" font-size="14" fill="#0f172a" text-anchor="middle" font-weight="bold" >Order (JSON node)</text>
<text x="660" y="495" font-size="12" fill="#0f172a" text-anchor="start"  >- order_id: str</text>
<text x="660" y="515" font-size="12" fill="#0f172a" text-anchor="start"  >- placed_at: date</text>
<text x="660" y="535" font-size="12" fill="#0f172a" text-anchor="start"  >- status: str</text>
<text x="660" y="555" font-size="12" fill="#0f172a" text-anchor="start"  >- items: List[Item]</text>
<line x1="650" y1="565" x2="910" y2="565" stroke="#1e293b" stroke-width="2" stroke-dasharray=""/>
<rect x="950" y="450" width="260" height="110" fill="#fff" stroke="#1e293b" stroke-width="2" stroke-dasharray=""/>
<rect x="950" y="450" width="260" height="30" fill="#dbeafe" stroke="#1e293b" stroke-width="2" stroke-dasharray=""/>
<text x="1080.0" y="470" font-size="14" fill="#0f172a" text-anchor="middle" font-weight="bold" >ArrivalHistory (JSON)</text>
<text x="960" y="495" font-size="12" fill="#0f172a" text-anchor="start"  >- global_arrival_id: int</text>
<text x="960" y="515" font-size="12" fill="#0f172a" text-anchor="start"  >- order_id: str</text>
<text x="960" y="535" font-size="12" fill="#0f172a" text-anchor="start"  >- arrived_at: date</text>
<text x="960" y="555" font-size="12" fill="#0f172a" text-anchor="start"  >- items: List</text>
<line x1="950" y1="565" x2="1210" y2="565" stroke="#1e293b" stroke-width="2" stroke-dasharray=""/>
<rect x="50" y="300" width="260" height="150" fill="#fff" stroke="#1e293b" stroke-width="2" stroke-dasharray=""/>
<rect x="50" y="300" width="260" height="30" fill="#dbeafe" stroke="#1e293b" stroke-width="2" stroke-dasharray=""/>
<text x="180.0" y="320" font-size="14" fill="#0f172a" text-anchor="middle" font-weight="bold" >slot_allocator.py (Python)</text>
<text x="60" y="345" font-size="12" fill="#0f172a" text-anchor="start"  >- df_prices: DataFrame</text>
<text x="60" y="365" font-size="12" fill="#0f172a" text-anchor="start"  >- allocations: List</text>
<line x1="50" y1="375" x2="310" y2="375" stroke="#1e293b" stroke-width="2" stroke-dasharray=""/>
<text x="60" y="395" font-size="12" fill="#0f172a" text-anchor="start"  >+ demand_intensity()</text>
<text x="60" y="415" font-size="12" fill="#0f172a" text-anchor="start"  >+ main() - strict rules</text>
<text x="60" y="435" font-size="12" fill="#0f172a" text-anchor="start"  >-> Writes batch_allocations.json</text>
<rect x="50" y="550" width="260" height="210" fill="#fff" stroke="#1e293b" stroke-width="2" stroke-dasharray=""/>
<rect x="50" y="550" width="260" height="30" fill="#dbeafe" stroke="#1e293b" stroke-width="2" stroke-dasharray=""/>
<text x="180.0" y="570" font-size="14" fill="#0f172a" text-anchor="middle" font-weight="bold" >svg_generator.py (Python)</text>
<text x="60" y="595" font-size="12" fill="#0f172a" text-anchor="start"  >- CANVAS_W: int</text>
<text x="60" y="615" font-size="12" fill="#0f172a" text-anchor="start"  >- CANVAS_H: int</text>
<text x="60" y="635" font-size="12" fill="#0f172a" text-anchor="start"  >- zones: Dict</text>
<text x="60" y="655" font-size="12" fill="#0f172a" text-anchor="start"  >- SHELF_SPACES: List</text>
<line x1="50" y1="665" x2="310" y2="665" stroke="#1e293b" stroke-width="2" stroke-dasharray=""/>
<text x="60" y="685" font-size="12" fill="#0f172a" text-anchor="start"  >+ build_svg_header()</text>
<text x="60" y="705" font-size="12" fill="#0f172a" text-anchor="start"  >+ draw_layout_regions()</text>
<text x="60" y="725" font-size="12" fill="#0f172a" text-anchor="start"  >+ draw_rack()</text>
<text x="60" y="745" font-size="12" fill="#0f172a" text-anchor="start"  >+ generate()</text>
<rect x="1250" y="50" width="260" height="130" fill="#f1f5f9" stroke="#94a3b8" stroke-width="2" stroke-dasharray="8,4"/>
<rect x="1250" y="50" width="260" height="30" fill="#e2e8f0" stroke="#94a3b8" stroke-width="2" stroke-dasharray="8,4"/>
<text x="1380.0" y="70" font-size="14" fill="#64748b" text-anchor="middle" font-weight="bold" font-style="italic">CartAssigner</text>
<rect x="1460" y="40" width="60" height="20" rx="4" fill="#64748b"/>
<text x="1490" y="54" font-size="10" fill="#fff" text-anchor="middle">Planned</text>
<text x="1260" y="95" font-size="12" fill="#64748b" text-anchor="start"  font-style="italic">- clusters: List</text>
<text x="1260" y="115" font-size="12" fill="#64748b" text-anchor="start"  font-style="italic">- threshold: float</text>
<line x1="1250" y1="125" x2="1510" y2="125" stroke="#94a3b8" stroke-width="2" stroke-dasharray="8,4"/>
<text x="1260" y="145" font-size="12" fill="#64748b" text-anchor="start"  font-style="italic">+ fuzzy_c_means()</text>
<text x="1260" y="165" font-size="12" fill="#64748b" text-anchor="start"  font-style="italic">+ build_cart()</text>
<rect x="1250" y="300" width="260" height="110" fill="#f1f5f9" stroke="#94a3b8" stroke-width="2" stroke-dasharray="8,4"/>
<rect x="1250" y="300" width="260" height="30" fill="#e2e8f0" stroke="#94a3b8" stroke-width="2" stroke-dasharray="8,4"/>
<text x="1380.0" y="320" font-size="14" fill="#64748b" text-anchor="middle" font-weight="bold" font-style="italic">IACOPlanner</text>
<rect x="1460" y="290" width="60" height="20" rx="4" fill="#64748b"/>
<text x="1490" y="304" font-size="10" fill="#fff" text-anchor="middle">Planned</text>
<text x="1260" y="345" font-size="12" fill="#64748b" text-anchor="start"  font-style="italic">- nodes: List</text>
<text x="1260" y="365" font-size="12" fill="#64748b" text-anchor="start"  font-style="italic">- pheromones: Matrix</text>
<line x1="1250" y1="375" x2="1510" y2="375" stroke="#94a3b8" stroke-width="2" stroke-dasharray="8,4"/>
<text x="1260" y="395" font-size="12" fill="#64748b" text-anchor="start"  font-style="italic">+ compute_global()</text>
<rect x="1250" y="550" width="260" height="90" fill="#f1f5f9" stroke="#94a3b8" stroke-width="2" stroke-dasharray="8,4"/>
<rect x="1250" y="550" width="260" height="30" fill="#e2e8f0" stroke="#94a3b8" stroke-width="2" stroke-dasharray="8,4"/>
<text x="1380.0" y="570" font-size="14" fill="#64748b" text-anchor="middle" font-weight="bold" font-style="italic">DWAPlanner</text>
<rect x="1460" y="540" width="60" height="20" rx="4" fill="#64748b"/>
<text x="1490" y="554" font-size="10" fill="#fff" text-anchor="middle">Planned</text>
<text x="1260" y="595" font-size="12" fill="#64748b" text-anchor="start"  font-style="italic">- local_map: Matrix</text>
<line x1="1250" y1="605" x2="1510" y2="605" stroke="#94a3b8" stroke-width="2" stroke-dasharray="8,4"/>
<text x="1260" y="625" font-size="12" fill="#64748b" text-anchor="start"  font-style="italic">+ plan_local()</text>

</svg>